<?xml version="1.0" encoding="UTF-8"?>
<svg viewBox="0 0 400 300" width="400" height="300" xmlns="http://www.w3.org/2000/svg">
  <defs>
    <radialGradient id="prodBg" cx="50%" cy="40%" r="65%">
      <stop offset="0%" stop-color="#FFFFFF" />
      <stop offset="100%" stop-color="#F8FAFC" />
    </radialGradient>
    <filter id="cardShadow" x="-10%" y="-10%" width="125%" height="125%">
      <feDropShadow dx="0" dy="6" stdDeviation="8" flood-opacity="0.07" />
    </filter>
  </defs>
  <!-- Background -->
  <rect width="400" height="300" rx="16" fill="url(#prodBg)" />
  
  <!-- Subtle Brand Watermark -->
  <text x="200" y="170" font-family="-apple-system, BlinkMacSystemFont, 'Segoe UI', Roboto, sans-serif" font-size="42" font-weight="900" fill="#0F172A" opacity="0.03" text-anchor="middle">HINDWARE</text>

  <!-- Product Illustration -->
  <g filter="url(#cardShadow)">
    
      <g transform="translate(50, 40)">
        <rect x="10" y="30" width="280" height="170" rx="16" fill="#CBD5E1" stroke="#475569" stroke-width="3"/>
        <!-- Bowl -->
        <rect x="25" y="50" width="140" height="130" rx="12" fill="#F1F5F9" stroke="#94A3B8" stroke-width="2"/>
        <circle cx="95" cy="115" r="20" fill="#64748B"/>
        <!-- Drainboard grooves -->
        <rect x="180" y="50" width="95" height="130" rx="8" fill="#E2E8F0"/>
        <line x1="195" y1="65" x2="260" y2="65" stroke="#94A3B8" stroke-width="2.5"/>
        <line x1="195" y1="85" x2="260" y2="85" stroke="#94A3B8" stroke-width="2.5"/>
        <line x1="195" y1="105" x2="260" y2="105" stroke="#94A3B8" stroke-width="2.5"/>
        <line x1="195" y1="125" x2="260" y2="125" stroke="#94A3B8" stroke-width="2.5"/>
        <line x1="195" y1="145" x2="260" y2="145" stroke="#94A3B8" stroke-width="2.5"/>
      </g>
    
  </g>

  <!-- Product Bottom Quality & Spec Bar -->
  <g transform="translate(16, 256)">
    <rect width="368" height="30" rx="6" fill="#FFFFFF" stroke="#E2E8F0" stroke-width="1"/>
    <rect x="8" y="5" width="6" height="20" rx="3" fill="#E11D48"/>
    <text x="22" y="19" font-family="-apple-system, BlinkMacSystemFont, 'Segoe UI', Roboto, sans-serif" font-size="11" font-weight="800" fill="#E11D48">HINDWARE</text>
    <text x="358" y="19" font-family="-apple-system, BlinkMacSystemFont, 'Segoe UI', Roboto, sans-serif" font-size="9" font-weight="700" fill="#64748B" text-anchor="end">Single Bowl with Drainboard (37x18 Inch)</text>
  </g>
</svg>