<?xml version="1.0" encoding="UTF-8"?>
<svg viewBox="0 0 400 300" width="400" height="300" xmlns="http://www.w3.org/2000/svg">
  <defs>
    <radialGradient id="prodBg" cx="50%" cy="40%" r="65%">
      <stop offset="0%" stop-color="#FFFFFF" />
      <stop offset="100%" stop-color="#F8FAFC" />
    </radialGradient>
    <filter id="cardShadow" x="-10%" y="-10%" width="125%" height="125%">
      <feDropShadow dx="0" dy="6" stdDeviation="8" flood-opacity="0.07" />
    </filter>
  </defs>
  <!-- Background -->
  <rect width="400" height="300" rx="16" fill="url(#prodBg)" />
  
  <!-- Subtle Brand Watermark -->
  <text x="200" y="170" font-family="-apple-system, BlinkMacSystemFont, 'Segoe UI', Roboto, sans-serif" font-size="42" font-weight="900" fill="#0F172A" opacity="0.03" text-anchor="middle">STRONGFAB</text>

  <!-- Product Illustration -->
  <g filter="url(#cardShadow)">
    
      <g transform="translate(70, 40)">
        <!-- Heavy Steel I-Beam in 3D Isometric View -->
        <polygon points="20,50 80,50 80,70 60,70 60,130 80,130 80,150 20,150 20,130 40,130 40,70 20,70" fill="#475569" stroke="#0F172A" stroke-width="2"/>
        <polygon points="80,50 240,20 240,40 100,70 100,50" fill="#64748B" stroke="#0F172A" stroke-width="1.5"/>
        <polygon points="100,70 240,40 240,100 100,130" fill="#334155" stroke="#0F172A" stroke-width="1.5"/>
        <polygon points="80,150 240,120 240,140 80,170" fill="#64748B" stroke="#0F172A" stroke-width="1.5"/>

        <g transform="translate(130, 80)">
          <rect width="100" height="36" rx="4" fill="#FCEFD2" stroke="#B45309" stroke-width="1.5"/>
          <text x="50" y="18" font-family="Arial, sans-serif" font-size="10" font-weight="900" fill="#B45309" text-anchor="middle">STRONGFAB®</text>
          <text x="50" y="30" font-family="Arial, sans-serif" font-size="8" font-weight="bold" fill="#000" text-anchor="middle">ISMB 150x75 mm</text>
        </g>
      </g>
    
  </g>

  <!-- Product Bottom Quality & Spec Bar -->
  <g transform="translate(16, 256)">
    <rect width="368" height="30" rx="6" fill="#FFFFFF" stroke="#E2E8F0" stroke-width="1"/>
    <rect x="8" y="5" width="6" height="20" rx="3" fill="#B45309"/>
    <text x="22" y="19" font-family="-apple-system, BlinkMacSystemFont, 'Segoe UI', Roboto, sans-serif" font-size="11" font-weight="800" fill="#B45309">STRONGFAB</text>
    <text x="358" y="19" font-family="-apple-system, BlinkMacSystemFont, 'Segoe UI', Roboto, sans-serif" font-size="9" font-weight="700" fill="#64748B" text-anchor="end">Matelio Private Label · PEB & Structural Steel</text>
  </g>
</svg>