<?xml version="1.0" encoding="UTF-8"?>
<svg viewBox="0 0 400 300" width="400" height="300" xmlns="http://www.w3.org/2000/svg">
  <defs>
    <radialGradient id="bgGrad" cx="50%" cy="40%" r="60%">
      <stop offset="0%" stop-color="#FFFFFF" />
      <stop offset="100%" stop-color="#F1F5F9" />
    </radialGradient>
    <filter id="dropShadow" x="-10%" y="-10%" width="130%" height="130%">
      <feDropShadow dx="0" dy="8" stdDeviation="10" flood-opacity="0.08" />
    </filter>
  </defs>
  <!-- Studio Backdrop -->
  <rect width="400" height="300" rx="16" fill="url(#bgGrad)"/>
  
  <!-- Main Illustration with Shadow -->
  <g filter="url(#dropShadow)">
    
      <defs>
        <linearGradient id="aacGrad" x1="0%" y1="0%" x2="100%" y2="100%">
          <stop offset="0%" stop-color="#E2E8F0" />
          <stop offset="100%" stop-color="#94A3B8" />
        </linearGradient>
      </defs>
      <g transform="translate(70, 45)">
        <!-- 3D Block Perspective -->
        <polygon points="40,90 190,50 250,80 100,120" fill="#CBD5E1" stroke="#64748B" stroke-width="2"/>
        <polygon points="40,90 100,120 100,200 40,170" fill="#94A3B8" stroke="#64748B" stroke-width="2"/>
        <polygon points="100,120 250,80 250,160 100,200" fill="#E2E8F0" stroke="#64748B" stroke-width="2"/>
        <!-- Texture Pores -->
        <circle cx="140" cy="140" r="2.5" fill="#64748B" opacity="0.6"/>
        <circle cx="180" cy="120" r="3" fill="#64748B" opacity="0.5"/>
        <circle cx="160" cy="165" r="2" fill="#64748B" opacity="0.7"/>
        <circle cx="210" cy="145" r="3.5" fill="#64748B" opacity="0.5"/>
        <circle cx="70" cy="140" r="2" fill="#475569" opacity="0.6"/>
        <text x="175" y="145" font-family="Arial, sans-serif" font-size="12" font-weight="900" fill="#475569" transform="rotate(-15 175 145)" opacity="0.6">AAC 600x200</text>
      </g>
    
  </g>
  
  <!-- Category Info Bottom Strip -->
  <g transform="translate(20, 255)">
    <rect width="360" height="32" rx="8" fill="#FFFFFF" fill-opacity="0.9" stroke="#E2E8F0" stroke-width="1"/>
    <text x="14" y="21" font-family="-apple-system, BlinkMacSystemFont, 'Segoe UI', Roboto, sans-serif" font-size="12" font-weight="700" fill="#0F172A">AAC Concrete Blocks</text>
    <rect x="250" y="6" width="96" height="20" rx="4" fill="#F8FAFC" stroke="#CBD5E1"/>
    <text x="298" y="19" font-family="-apple-system, BlinkMacSystemFont, 'Segoe UI', Roboto, sans-serif" font-size="9.5" font-weight="700" fill="#475569" text-anchor="middle">Lightweight Masonry</text>
  </g>
</svg>