<?xml version="1.0" encoding="UTF-8"?>
<svg viewBox="0 0 400 300" width="400" height="300" xmlns="http://www.w3.org/2000/svg">
  <defs>
    <radialGradient id="bgGrad" cx="50%" cy="40%" r="60%">
      <stop offset="0%" stop-color="#FFFFFF" />
      <stop offset="100%" stop-color="#F1F5F9" />
    </radialGradient>
    <filter id="dropShadow" x="-10%" y="-10%" width="130%" height="130%">
      <feDropShadow dx="0" dy="8" stdDeviation="10" flood-opacity="0.08" />
    </filter>
  </defs>
  <!-- Studio Backdrop -->
  <rect width="400" height="300" rx="16" fill="url(#bgGrad)"/>
  
  <!-- Main Illustration with Shadow -->
  <g filter="url(#dropShadow)">
    
      <g transform="translate(90, 30)">
        <!-- Vertical Panels in Perspective -->
        <polygon points="30,40 100,10 140,30 70,60" fill="#E2E8F0" stroke="#64748B" stroke-width="2"/>
        <polygon points="30,40 70,60 70,210 30,190" fill="#94A3B8" stroke="#64748B" stroke-width="2"/>
        <polygon points="70,60 140,30 140,180 70,210" fill="#CBD5E1" stroke="#64748B" stroke-width="2"/>
        <!-- Steel Mesh lines -->
        <line x1="85" y1="60" x2="85" y2="200" stroke="#3B82F6" stroke-width="2" stroke-dasharray="8,6" opacity="0.7"/>
        <line x1="110" y1="50" x2="110" y2="190" stroke="#3B82F6" stroke-width="2" stroke-dasharray="8,6" opacity="0.7"/>
        <polygon points="110,60 180,30 220,50 150,80" fill="#E2E8F0" stroke="#64748B" stroke-width="2"/>
        <polygon points="110,60 150,80 150,230 110,210" fill="#94A3B8" stroke="#64748B" stroke-width="2"/>
        <polygon points="150,80 220,50 220,200 150,230" fill="#CBD5E1" stroke="#64748B" stroke-width="2"/>
      </g>
    
  </g>
  
  <!-- Category Info Bottom Strip -->
  <g transform="translate(20, 255)">
    <rect width="360" height="32" rx="8" fill="#FFFFFF" fill-opacity="0.9" stroke="#E2E8F0" stroke-width="1"/>
    <text x="14" y="21" font-family="-apple-system, BlinkMacSystemFont, 'Segoe UI', Roboto, sans-serif" font-size="12" font-weight="700" fill="#0F172A">AAC Wall Panels</text>
    <rect x="250" y="6" width="96" height="20" rx="4" fill="#F8FAFC" stroke="#CBD5E1"/>
    <text x="298" y="19" font-family="-apple-system, BlinkMacSystemFont, 'Segoe UI', Roboto, sans-serif" font-size="9.5" font-weight="700" fill="#475569" text-anchor="middle">Reinforced Drywall</text>
  </g>
</svg>