<?xml version="1.0" encoding="UTF-8"?>
<svg viewBox="0 0 400 300" width="400" height="300" xmlns="http://www.w3.org/2000/svg">
  <defs>
    <radialGradient id="bgGrad" cx="50%" cy="40%" r="60%">
      <stop offset="0%" stop-color="#FFFFFF" />
      <stop offset="100%" stop-color="#F1F5F9" />
    </radialGradient>
    <filter id="dropShadow" x="-10%" y="-10%" width="130%" height="130%">
      <feDropShadow dx="0" dy="8" stdDeviation="10" flood-opacity="0.08" />
    </filter>
  </defs>
  <!-- Studio Backdrop -->
  <rect width="400" height="300" rx="16" fill="url(#bgGrad)"/>
  
  <!-- Main Illustration with Shadow -->
  <g filter="url(#dropShadow)">
    
      <g transform="translate(50, 60)">
        <!-- Linear Floor Drain Channel -->
        <polygon points="10,60 270,30 290,70 30,100" fill="#E2E8F0" stroke="#475569" stroke-width="2.5"/>
        <polygon points="30,100 290,70 290,110 30,140" fill="#94A3B8" stroke="#475569" stroke-width="2.5"/>
        <!-- Perforated Grill Slots -->
        <line x1="50" y1="62" x2="60" y2="82" stroke="#1E293B" stroke-width="3"/>
        <line x1="80" y1="58" x2="90" y2="78" stroke="#1E293B" stroke-width="3"/>
        <line x1="110" y1="54" x2="120" y2="74" stroke="#1E293B" stroke-width="3"/>
        <line x1="140" y1="50" x2="150" y2="70" stroke="#1E293B" stroke-width="3"/>
        <line x1="170" y1="46" x2="180" y2="66" stroke="#1E293B" stroke-width="3"/>
        <line x1="200" y1="42" x2="210" y2="62" stroke="#1E293B" stroke-width="3"/>
        <line x1="230" y1="38" x2="240" y2="58" stroke="#1E293B" stroke-width="3"/>
      </g>
    
  </g>
  
  <!-- Category Info Bottom Strip -->
  <g transform="translate(20, 255)">
    <rect width="360" height="32" rx="8" fill="#FFFFFF" fill-opacity="0.9" stroke="#E2E8F0" stroke-width="1"/>
    <text x="14" y="21" font-family="-apple-system, BlinkMacSystemFont, 'Segoe UI', Roboto, sans-serif" font-size="12" font-weight="700" fill="#0F172A">Drainage Systems</text>
    <rect x="250" y="6" width="96" height="20" rx="4" fill="#F8FAFC" stroke="#CBD5E1"/>
    <text x="298" y="19" font-family="-apple-system, BlinkMacSystemFont, 'Segoe UI', Roboto, sans-serif" font-size="9.5" font-weight="700" fill="#475569" text-anchor="middle">SS 304 Linear Drains</text>
  </g>
</svg>